<svg viewBox="0 0 256 256" xmlns="http://www.w3.org/2000/svg">
  <defs>
    <linearGradient id="m-ring" x1="30" y1="30" x2="226" y2="226" gradientUnits="userSpaceOnUse">
      <stop offset="0" stop-color="#3A4A63"/><stop offset="0.5" stop-color="#1B2430"/><stop offset="1" stop-color="#0D131B"/>
    </linearGradient>
    <linearGradient id="m-navy" x1="-60" y1="-60" x2="60" y2="60" gradientUnits="userSpaceOnUse">
      <stop offset="0" stop-color="#3A4A63"/><stop offset="0.55" stop-color="#1B2430"/><stop offset="1" stop-color="#0D131B"/>
    </linearGradient>
    <linearGradient id="m-teal" x1="-60" y1="-60" x2="60" y2="60" gradientUnits="userSpaceOnUse">
      <stop offset="0" stop-color="#1D9E75"/><stop offset="0.55" stop-color="#0F6E56"/><stop offset="1" stop-color="#094A3B"/>
    </linearGradient>
    <linearGradient id="m-tick" x1="0" y1="0" x2="0" y2="1">
      <stop offset="0" stop-color="#FFFFFF"/><stop offset="1" stop-color="#D9D6CB"/>
    </linearGradient>
    <filter id="m-shadow" x="-20%" y="-20%" width="140%" height="150%">
      <feDropShadow dx="0" dy="5" stdDeviation="4.5" flood-color="#0D131B" flood-opacity="0.38"/>
    </filter>
  </defs>
  <g filter="url(#m-shadow)">
    <circle cx="128" cy="128" r="106" fill="none" stroke="url(#m-ring)" stroke-width="20"/>
    <circle cx="128" cy="128" r="115" fill="none" stroke="#FFFFFF" stroke-opacity="0.22" stroke-width="2" stroke-dasharray="170 560" transform="rotate(-165 128 128)"/>
    <circle cx="128" cy="128" r="97.5" fill="none" stroke="#000000" stroke-opacity="0.35" stroke-width="2" stroke-dasharray="190 430" transform="rotate(15 128 128)"/>
    <g fill="url(#m-tick)" stroke="#8C887A" stroke-width="0.8">
      <rect x="124" y="13" width="8" height="18" rx="1"/>
      <rect x="124" y="225" width="8" height="18" rx="1"/>
      <rect x="13" y="124" width="18" height="8" rx="1"/>
      <rect x="225" y="124" width="18" height="8" rx="1"/>
    </g>
    <g transform="translate(128 128) scale(1.15)" fill="none" stroke-width="22" stroke-linejoin="miter" stroke-miterlimit="6">
      <g transform="translate(0 6)">
        <path d="M0 0 L34 26 L0 50 L-34 28" stroke="#06322A"/>
        <path d="M34 -28 L0 -50 L-34 -26 L2.4 1.8" stroke="#070B10"/>
      </g>
      <path d="M0 0 L34 26 L0 50 L-34 28" stroke="url(#m-teal)"/>
      <path d="M34 -28 L0 -50 L-34 -26 L2.4 1.8" stroke="url(#m-navy)"/>
    </g>
  </g>
</svg>
